# xmcd
#
# Track frame offsets: 
#        150
#        18188
#        36796
#        55438
#        70200
#        87243
#        98459
#        114024
#        126343
#        139058
#        147995
#        167095
#        184438
#        201786
#        210956
#        227325
#        240183
#        252524
#        268137
#        279025
#        291091
#        306033
#
# Disc length: 4255 seconds
#
# Revision: 5
# Processed by: cddbd v1.5.2PL0 Copyright (c) Steve Scherf et al.
# Submitted via: ExactAudioCopy v0.99pb5
#
DISCID=2f109d16
DTITLE=Nikos Xylouris - Axehastes Epityhies
DYEAR=1975
DGENRE=Greek
TTITLE0=Afto Ton Kosmo Ton Kalo
TTITLE1=Gennithika
TTITLE2=Chilia Myria Kymata
TTITLE3=Itane Mia Fora
TTITLE4=Bikan Stin Poli Oi Ohtroi
TTITLE5=Zavarakatranemia
TTITLE6=Agrimia Ki Agrimakia Mou
TTITLE7=Pote Tha Kanei Xasteria
TTITLE8=Dirlada
TTITLE9=Geia Sou Hara Sou Venetia
TTITLE10=Kai Na Adelfe Mou
TTITLE11=Tou Thanatou Paraggeila
TTITLE12=O Digenis
TTITLE13=Barba Gianni Makrygianni
TTITLE14=Filedem
TTITLE15=O Pragmateftis
TTITLE16=Ewale O Theos Simadi
TTITLE17=O Andreiomenos
TTITLE18=O Mikros Stratiotis
TTITLE19=Erotiko Tragoudi
TTITLE20=I Ora Touti
TTITLE21=Berde Kai Berde
EXTD=YEAR: 2000
EXTT0=
EXTT1=
EXTT2=
EXTT3=
EXTT4=
EXTT5=
EXTT6=
EXTT7=
EXTT8=
EXTT9=
EXTT10=
EXTT11=
EXTT12=
EXTT13=
EXTT14=
EXTT15=
EXTT16=
EXTT17=
EXTT18=
EXTT19=
EXTT20=
EXTT21=
PLAYORDER=
